<svg version="1.2" xmlns="http://www.w3.org/2000/svg" viewBox="0 0 359 49" width="359" height="49"><style>.a{fill:#2f3e52}</style><path class="a" d="m14.1 30.4c2.5 5.6 10.1 3.6 14.2 0.9q0.1-0.1 0.2-0.1 0.2 0 0.3 0.1 0.1 0.1 0.2 0.2 0 0.1 0 0.2l-0.7 6.7q-0.1 0.4-0.5 0.7-2.4 1.8-5.3 2.2-9.2 1.4-14.5-5c-4.9-6.2-2.8-15.6 2.7-20.5 4.8-4.4 13-6.1 18.8-2.3q0.9 0.6 0.8 1.6l-0.5 5.9q-0.1 1.2-1.2 0.5c-4.7-3.2-11.9-3.8-14.5 2.5q-1.4 3.3 0 6.4z"/><path fill-rule="evenodd" class="a" d="m41.5 30.7q-0.9-0.8-1 0.4l-0.9 9.7q0 0.1 0 0.2-0.1 0-0.1 0.1-0.1 0-0.2 0.1 0 0-0.1 0h-7.6q-0.3 0-0.3-0.4l2.6-28.6q0-0.1 0-0.2 0.1 0 0.1-0.1 0.1 0 0.2-0.1 0 0 0.1 0 6.8 0.1 14.4 0c10.9-0.2 12.8 14.4 2.9 17.9q-0.6 0.2-0.3 0.7l4.9 10.5q0 0 0 0.1 0 0 0 0.1 0 0-0.1 0 0 0.1-0.1 0.1h-9.1q-0.2 0-0.3-0.2-2.2-4.5-4.2-9-0.4-0.8-0.9-1.3zm-0.1-12.3v5.8q0 0 0 0.1 0.1 0 0.1 0.1 0 0 0.1 0 0 0 0.1 0l4.8 0.1q0.6 0 1.2-0.3 0.6-0.2 1-0.6 0.5-0.4 0.7-1 0.3-0.5 0.3-1.1v-0.3q0-0.6-0.3-1.2-0.2-0.5-0.6-0.9-0.5-0.4-1.1-0.7-0.6-0.2-1.2-0.2h-4.8q-0.1 0-0.1 0 0 0-0.1 0.1 0 0 0 0.1-0.1 0-0.1 0z"/><path fill-rule="evenodd" class="a" d="m87.5 17.3c1.1 1.5 1.9 3.3 2.3 5.2 0.3 1.9 0.3 3.9-0.1 5.9-0.5 1.9-1.3 3.8-2.4 5.5-1.2 1.8-2.6 3.3-4.4 4.5-1.7 1.2-3.6 2.1-5.6 2.6-2 0.5-4 0.6-6 0.4-2-0.3-3.9-0.9-5.6-1.9-1.6-1-3.1-2.3-4.2-3.8-1.1-1.6-1.8-3.4-2.2-5.3-0.4-1.9-0.4-3.9 0.1-5.8 0.4-2 1.2-3.9 2.4-5.6 1.1-1.7 2.6-3.2 4.3-4.4 1.7-1.2 3.6-2.1 5.6-2.6 2-0.6 4.1-0.7 6.1-0.5 1.9 0.3 3.8 0.9 5.5 1.9 1.7 1 3.1 2.3 4.2 3.9zm-15 17.8q1.4 0.3 2.8 0 1.3-0.4 2.6-1.4 1.2-1 2-2.5c0.6-1 1-2.1 1.3-3.2 0.2-1.1 0.3-2.3 0.2-3.4q-0.1-1.7-0.8-3.2-0.7-1.4-1.8-2.3-1.1-1-2.4-1.3-1.3-0.3-2.7 0.1-1.4 0.4-2.6 1.4-1.2 1-2.1 2.5c-0.6 1-1 2.1-1.3 3.2-0.2 1.1-0.3 2.3-0.2 3.4q0.2 1.7 0.8 3.1 0.7 1.5 1.8 2.4 1.1 0.9 2.4 1.2z"/><path class="a" d="m116.8 34.2q0.1 1 0.4 0.1l7.4-22.2q0.2-0.3 0.4-0.3h8.2q0.2 0 0.1 0.2l-10.2 28.6q-0.2 0.6-0.9 0.6h-10.4q-0.5 0-0.5-0.5l-0.7-5.5q-0.1-0.8-0.5 0-1.3 2.5-1.9 5.3 0 0.1-0.1 0.3-0.1 0.1-0.2 0.2-0.1 0.1-0.3 0.1-0.1 0.1-0.3 0.1h-10.5q-0.5 0-0.6-0.4l-5.3-28.8q-0.1-0.2 0.1-0.2h8.1q0.3 0 0.4 0.3l3.7 21.8q0.2 1.7 0.7 0.1l3.8-12.2q0-0.2 0.1-0.3 0.1-0.1 0.2-0.2 0.1 0 0.2-0.1 0.1 0 0.3 0l5.8-0.1q0.6 0 0.7 0.6z"/><path fill-rule="evenodd" class="a" d="m148.9 11.8c8 0 11.8 8.4 11 15.2-1.2 9.1-7.4 14.6-16.4 14.2q-5-0.2-9.8 0.1-1.2 0-1.1-1.2 1.8-15.8 2.5-27.6 0-0.1 0.1-0.2 0-0.2 0.1-0.3 0.1-0.1 0.3-0.1 0.1-0.1 0.3-0.1 6.2 0.1 13 0zm-5.7 6l-1.7 16.7q0 0 0 0.1 0 0.1 0.1 0.1 0 0 0.1 0.1 0 0 0.1 0l1.6 0.2q1.4 0.1 2.8-0.4 1.4-0.4 2.5-1.4 1.1-1.1 1.8-2.5 0.7-1.4 0.9-2.9l0.1-1.5q0.2-1.6-0.2-3.1-0.4-1.5-1.3-2.7-0.9-1.2-2.2-1.9-1.3-0.7-2.7-0.9l-1.6-0.1q-0.1-0.1-0.1 0-0.1 0-0.1 0-0.1 0-0.1 0.1 0 0.1 0 0.1z"/><path class="a" d="m171.6 18.5l-0.5 4.3q0 0.7 0.7 0.7h7.4q0.2 0 0.2 0.2l-0.5 5.5q0 0.1-0.1 0.2 0 0 0 0.1-0.1 0-0.2 0 0 0.1-0.1 0.1l-7.2-0.1q-0.7 0-0.7 0.7l-0.9 10.7q0 0.3-0.3 0.3h-7.9q-0.2 0-0.2-0.3 1.1-11.9 1.9-22.6 0.2-2.9 0.8-6 0.1-0.5 0.5-0.5h19.8q0.4 0 0.3 0.5l-0.4 5.2q0 0.5-0.5 0.5h-11.5q-0.1 0-0.2 0-0.1 0.1-0.2 0.2-0.1 0-0.1 0.1-0.1 0.1-0.1 0.2z"/><path class="a" d="m192.9 29.8c-0.7 6.5 7.7 6.9 8.4 0.8q1.1-9.4 1.6-18.3 0-0.5 0.5-0.5h7.4q0.5 0 0.5 0.5-0.8 9-1.3 16.5c-0.7 8.6-11.3 16.2-19.5 11.3-6.3-3.8-6.3-9.5-5.3-16.5q0.8-5.9 1.1-11.3 0-0.1 0-0.2 0.1-0.1 0.1-0.2 0.1 0 0.2-0.1 0.1 0 0.1 0h7.7q0.2 0 0.2 0.3c-0.4 5.9-1 11.7-1.7 17.7z"/><path class="a" d="m221.7 27.3l-1.3 13.6q0 0 0 0.1-0.1 0.1-0.1 0.1 0 0-0.1 0.1-0.1 0-0.1 0h-7.6q-0.1 0-0.2 0 0-0.1-0.1-0.1 0-0.1-0.1-0.1 0-0.1 0-0.2l2.7-28.7q0 0 0-0.1 0-0.1 0.1-0.1 0 0 0.1-0.1 0 0 0.1 0h7.8q0.1 0 0.1 0 0 0 0.1 0.1 0 0 0 0 0.1 0 0.1 0.1l8.3 14q0.1 0.1 0.2 0.2 0.1 0 0.2 0 0.1 0 0.2-0.1 0-0.1 0-0.2l1.2-13.8q0 0 0-0.1 0 0 0.1-0.1 0 0 0.1 0 0-0.1 0.1-0.1h7.8q0 0 0.1 0 0 0.1 0.1 0.1 0 0.1 0.1 0.1 0 0.1 0 0.2l-2.5 28.7q0 0.1-0.1 0.1 0 0.1 0 0.1-0.1 0-0.1 0.1-0.1 0-0.2 0h-7.7q-0.1 0-0.1 0-0.1 0-0.1-0.1 0 0-0.1 0 0 0 0-0.1l-8.5-13.8q0-0.1-0.1-0.1-0.1-0.1-0.2-0.1-0.1 0.1-0.2 0.1-0.1 0.1-0.1 0.2z"/><path fill-rule="evenodd" class="a" d="m264.2 13.1c5.8 3.2 6.9 10.6 5.5 16.6q-1.5 6.5-7.8 10-3.1 1.7-8.1 1.5-5.6-0.1-10.5 0-0.1 0-0.2 0-0.1 0-0.1-0.1-0.1-0.1-0.1-0.2 0 0 0-0.1l2.4-28.1q0.1-0.9 1-0.9 7.8 0 13.9 0.1 2 0 4 1.2zm-10.6 4.7l-1.8 16.7q0 0 0 0.1 0 0 0 0.1 0.1 0 0.1 0.1 0.1 0 0.1 0l1.6 0.2q1.4 0.1 2.8-0.3 1.4-0.4 2.5-1.4 1.1-0.9 1.9-2.2 0.7-1.4 0.8-2.9l0.3-2.1q0.1-1.5-0.3-3-0.4-1.4-1.2-2.6-0.9-1.2-2.2-1.9-1.3-0.7-2.7-0.9l-1.5-0.2q-0.1 0-0.1 0.1-0.1 0-0.2 0 0 0 0 0.1-0.1 0.1-0.1 0.1z"/><path class="a" d="m289.8 23.1l1.2-10.9q0-0.1 0-0.2 0 0 0.1-0.1 0.1 0 0.1-0.1 0.1 0 0.2 0h7.5q0.1 0 0.2 0.1 0.1 0 0.1 0.1 0.1 0 0.1 0.1 0 0.1 0 0.2l-2.5 28.5q0 0.1-0.1 0.1 0 0.1-0.1 0.1 0 0.1-0.1 0.1-0.1 0.1-0.1 0.1h-7.6q-0.1 0-0.2 0-0.1-0.1-0.1-0.1-0.1-0.1-0.1-0.2-0.1-0.1 0-0.2l1-10.7q0-0.1 0-0.2-0.1-0.1-0.1-0.1-0.1-0.1-0.2-0.1 0-0.1-0.1-0.1l-7.5 0.1q-0.1 0-0.2 0 0 0-0.1 0.1 0 0-0.1 0.1 0 0.1 0 0.1l-1.2 10.9q0 0.1-0.1 0.2 0 0-0.1 0.1 0 0-0.1 0.1-0.1 0-0.2 0h-7.3q-0.1 0-0.2-0.1-0.1 0-0.1-0.1-0.1 0-0.1-0.1 0-0.1 0-0.2l2.5-28.5q0-0.1 0-0.1 0.1-0.1 0.1-0.2 0.1 0 0.2 0 0-0.1 0.1-0.1h7.5q0.1 0 0.2 0.1 0 0 0.1 0.1 0.1 0 0.1 0.1 0 0.1 0 0.2l-1 10.7q0 0.1 0 0.1 0.1 0.1 0.1 0.2 0.1 0.1 0.2 0.1 0 0 0.1 0l7.5 0.1q0 0 0.1-0.1 0.1 0 0.1 0 0.1-0.1 0.1-0.2 0.1 0 0.1-0.1z"/><path class="a" d="m309.4 30.7c-0.3 5.5 7.5 5.6 8.1 0.3q1.1-9.6 1.9-18.7 0.1-0.5 0.6-0.5h7.2q0.1 0 0.2 0.1 0.1 0 0.1 0.1 0.1 0 0.1 0.1 0 0.1 0 0.2-0.6 9.8-1.6 17.8c-1.1 8.2-11.6 14.3-19.1 10-4.4-2.5-6.1-6.6-5.7-11.7q0.7-9 1.4-16 0.1-0.6 0.6-0.6h7.4q0.5 0 0.4 0.6-1.1 8.3-1.6 18.3z"/><path fill-rule="evenodd" class="a" d="m352.8 26.5c3.8 6.6-0.7 14.5-8.3 14.6q-7.4 0.1-15.4 0.1-0.6 0-0.5-0.7l2.4-28q0.1-0.7 0.8-0.7 7.3 0.1 14.1 0 2.8-0.1 4.8 1.4 6.2 4.4 2 12.4-0.2 0.5 0.1 0.9zm-8.3-3.2q0.3 0 0.5-0.1 0.2 0 0.4-0.2 0.1-0.2 0.2-0.4 0.1-0.2 0.1-0.4l0.2-2.6q0-0.3 0-0.5-0.1-0.2-0.3-0.4-0.1-0.2-0.3-0.3-0.3-0.1-0.5-0.1l-4.6-0.4q-0.2-0.1-0.5 0-0.2 0.1-0.4 0.2-0.2 0.2-0.3 0.4-0.1 0.2-0.1 0.4l-0.4 3.2q-0.1 0.3 0 0.5 0.1 0.3 0.3 0.5 0.2 0.2 0.4 0.3 0.2 0.1 0.5 0.1zm-7 6.4v4.9q0 0.1 0 0.1 0 0.1 0 0.1 0.1 0.1 0.1 0.1 0.1 0 0.2 0h5.3q0.5 0 1-0.2 0.5-0.2 0.9-0.5 0.4-0.4 0.6-0.8 0.2-0.5 0.2-1v-0.5q0-0.5-0.2-0.9-0.2-0.5-0.6-0.8-0.4-0.4-0.9-0.6-0.5-0.2-1-0.2h-5.3q-0.1 0-0.2 0.1 0 0-0.1 0 0 0.1 0 0.1 0 0.1 0 0.1z"/></svg>